<svg xmlns="http://www.w3.org/2000/svg" viewBox="0 0 1087.48 119.72"><title>Artboard 1</title><path d="M298.82,74c2.08-8.3,4.2-16.59,6.22-24.9,3.45-14.2,7-28.37,10.16-42.64,1-4.35,3-5.61,7.19-5.34,5.1.33,10.23.08,16.19.08-1.93,7.64-3.62,14.49-5.4,21.31-7.93,30.37-15.93,60.73-23.76,91.13-.94,3.67-2.48,5.06-6.42,5-12.87-.17-12.86,0-16.43-12.36Q278.7,79,270.78,51.74c-.5-1.71-1.25-3.34-2.4-6.39-1,2.63-1.59,4-2,5.46-6.06,20.9-12.19,41.79-18.06,62.75-1.1,3.93-2.88,5.18-6.94,5.12-12.45-.2-12.46,0-15.54-11.79Q212.69,56.75,199.56,6.62c-.41-1.57-.61-3.19-1-5.37,6.71,0,13-.25,19.28.21,1.29.1,3,2.72,3.45,4.45,5.23,20.94,10.25,41.94,15.36,62.92.38,1.56,1,3.06,2.07,6.17,1.12-2.83,1.86-4.31,2.3-5.88,5.91-20.94,11.86-41.87,17.58-62.87,1-3.64,2.41-5.18,6.4-5.13,11.76.14,11.78,0,15,11.44q7.87,28.07,15.73,56.15c.52,1.83,1.34,3.58,2,5.37Z" style="fill:#c8785b"/><path d="M657.13,73.94q3-12,5.95-24c3.64-14.83,7.38-29.64,10.81-44.53.77-3.34,2.29-4.36,5.46-4.22,4.16.18,8.33.17,12.49,0,3.74-.15,5,.71,3.89,4.88-7,26.31-13.83,52.68-20.7,79-2.55,9.8-5.18,19.58-7.62,29.41-.71,2.86-2,4.06-5.11,4.13-13.78.3-13.75.39-17.54-12.75q-8-27.53-16-55a7.7,7.7,0,0,0-2.93-4.28c-2.45,8.35-4.93,16.7-7.35,25.06-4.06,14-8.2,28.06-12,42.16-1,3.76-2.82,4.89-6.62,4.85-12.73-.15-12.69,0-16-12.57q-13-49.89-26.07-99.77c-.37-1.42-.63-2.87-1.1-5,6.87,0,13.3-.21,19.69.2,1.12.07,2.6,2.65,3,4.29,5.4,21.41,10.63,42.86,15.93,64.3a7.1,7.1,0,0,0,2.43,4c2.73-9.53,5.5-19,8.19-28.58C609.7,32.18,613.48,18.92,617,5.61c.88-3.31,2.39-4.58,5.87-4.45C638,1.71,634-1.53,638.26,12.73c5.48,18.47,10.44,37.09,15.66,55.64.53,1.88,1.23,3.71,1.86,5.56Z" style="fill:#c8785b"/><path d="M372.34,46v5.2c0,20.66-.09,41.33.08,62,0,4-1,5.8-5.28,5.45a99.3,99.3,0,0,0-12,0c-3.06.12-4-1.13-4-4.12q.1-54.49,0-109c0-3.28,1.13-4.27,4.35-4.35,13.88-.35,13.92-.47,21.48,11q19,28.76,37.92,57.58c1,1.47,2.06,2.87,4,5.58.16-3.17.31-4.87.31-6.57,0-20.83.11-41.66-.08-62.49,0-4.06,1.29-5.32,5.17-5.06a116.51,116.51,0,0,0,12,0c2.89-.1,4.22.79,4.22,3.95q-.11,54.74,0,109.48c0,3.12-1.26,4.24-4.18,3.95a1.84,1.84,0,0,0-.5,0c-9.94,1.76-16.2-1.82-21.61-10.92-11.82-19.87-25.13-38.86-37.85-58.2-.86-1.31-1.89-2.51-2.84-3.76Z" style="fill:#c8785b"/><path d="M730.37,46v5.2c0,20.66-.09,41.33.08,62,0,4-1,5.81-5.28,5.45a80.7,80.7,0,0,0-11.49,0c-3.53.21-4.59-1.18-4.56-4.64.14-17,.06-34,.06-51,0-18.83.12-37.66-.09-56.49,0-4.19,1.4-4.91,5.36-5.47,10.07-1.44,15.85,2.51,21.08,11.15,11.9,19.64,25,38.53,37.68,57.72A10.8,10.8,0,0,0,777.48,74c.14-1.86.41-3.71.41-5.57,0-20.5.12-41-.06-61.49,0-4.23,1-6.21,5.57-5.75a51.79,51.79,0,0,0,10,0c4.31-.4,5.34,1.49,5.31,5.48-.15,22-.07,44-.07,66,0,13.33-.14,26.66.08,40,.07,4.38-1.1,5.65-5.77,6.18-9.72,1.12-15.21-2.57-20.25-10.89-12-19.78-25.19-38.83-37.92-58.17-.95-1.44-2.09-2.75-3.14-4.12Z" style="fill:#c8785b"/><path d="M68.16,73.7q0-2.66,0-5.32c0-20.49.1-41-.09-61.47,0-4.2.84-6.25,5.48-5.75C78.6,1.7,85.35,0,88.29,2.64,90.86,5,89.34,12,89.35,17c.05,32,0,64,.11,95.95,0,4.23-1.06,5.34-5.47,5.89-10.06,1.25-15.82-2.51-21.06-11.23C51.2,88,38.14,69.28,25.61,50.23a12.1,12.1,0,0,0-4.55-4.42c-.15,1.86-.42,3.72-.42,5.58q0,29.48,0,59c0,9.4.5,8.12-8.44,8.21-2.33,0-4.68-.19-7,0-3.89.39-5.29-1-5.18-5,.26-9.32.08-18.65.08-28,0-26.32.07-52.64-.07-79C0,2.63,1.07,1.48,5.25,1c9.44-1,15.29,2,20.42,10.54,11.82,19.67,25,38.54,37.63,57.72,1.07,1.63,2.27,3.18,3.41,4.77Z" style="fill:#c8785b"/><path d="M462.52,59.78c.45-8.29.68-16.6,1.39-24.87C465.45,17.06,480.73,3.37,498.36.56c17.35-2.76,36.11,4.78,43.8,20.14a59.9,59.9,0,0,1,5.75,23.89c.54,14.06.48,28.36-1.51,42.25-2.59,18.06-16.28,30.27-34.33,32.44-16.43,2-30.66-2.66-41.14-16.2-5.3-6.84-7.28-14.89-7.69-23.3-.33-6.65-.07-13.32-.07-20Zm65.07.42c-.47-7.53-.66-15-1.47-22.44-1.33-12.06-9.25-18.49-21.9-18.28-10.76.17-19.28,7.95-19.68,19.19-.51,14.09-.47,28.23,0,42.33a19.72,19.72,0,0,0,18.62,19.29c12.9.51,21.46-5.88,22.94-17.75C527,75.15,527.12,67.64,527.6,60.21Z" style="fill:#c8785b"/><path d="M115.19,60c0-17.82.12-35.65-.09-53.46,0-4.2,1.28-5.39,5.39-5.36q33,.26,66,0c3.84,0,5.23,1,5.27,5,.12,14.28.25,14.27-13.94,14.27-12,0-24,.21-36-.11-4.55-.12-5.74,1.4-5.51,5.69a176.86,176.86,0,0,1,0,18.48c-.22,4.33,1.15,5.87,5.61,5.77,12.15-.26,24.32.05,36.47-.16,3.94-.07,5.48,1.13,5.11,5.12a53.83,53.83,0,0,0,0,9c.27,3.6-1.35,4.59-4.7,4.55-12.16-.12-24.32.09-36.47-.11-4.4-.07-6.32,1.14-6,5.93.4,6.64.29,13.33,0,20-.15,3.77,1.18,4.83,4.86,4.79,15-.18,30,.1,45-.17,4.54-.08,5.61,1.5,5.58,5.75-.09,13.6.05,13.61-13.63,13.61-19,0-38-.17-57,.11-5,.07-6.1-1.57-6-6.26C115.34,94.94,115.19,77.45,115.19,60Z" style="fill:#c8785b"/><path d="M825.09,60.06c0-17.82.1-35.64-.08-53.46,0-4,1-5.51,5.29-5.47q33,.29,66,0c3.8,0,5.23.92,5.22,5,0,14.3.11,14.3-14.35,14.3-12,0-24,.14-36-.08-4-.07-5.75,1-5.58,5.28.26,6.48.2,13,0,19.48-.11,3.94,1.52,5.18,5.36,5.13,12.32-.17,24.65.06,37-.13,3.94-.06,5.58.84,5.53,5.23-.15,13.38,0,13.38-13.35,13.38-9.66,0-19.32.13-29,0-4.12-.08-5.65,1.52-5.53,5.59.2,6.82.15,13.66,0,20.48-.06,3.4,1.21,4.63,4.7,4.6,15.32-.15,30.65,0,46-.14,3.88,0,5.2,1,5.19,5,0,14.29.11,14.29-14.37,14.29-19,0-38-.1-57,.08-3.95,0-5.17-1.17-5.13-5.12C825.19,95.7,825.09,77.88,825.09,60.06Z" style="fill:#c8785b"/><path d="M909.27,1.25c7.8,0,14.75-.21,21.67.17,1.45.08,3.23,2.05,4.1,3.59,5.43,9.54,10.64,19.21,15.93,28.83.87,1.58,1.82,3.1,3.24,5.52,1.33-2.07,2.33-3.44,3.15-4.92C962.79,24.7,968.29,15,973.53,5.16c1.53-2.87,3.31-4.13,6.62-4,6.12.24,12.26.07,19.34.07-1.17,2.27-1.88,3.86-2.76,5.34-9.32,15.75-18.56,31.56-28.1,47.19-2.12,3.47-2.12,6,0,9.46,10.59,17.13,20.94,34.4,31.35,51.64.57.95,1,2,1.9,3.69-7.71,0-14.81.21-21.87-.17-1.45-.08-3.2-2.11-4.1-3.66-6.13-10.49-12.06-21.09-18.07-31.64C957,81.5,956,80,954.54,77.61c-1.37,2-2.43,3.35-3.26,4.81-6.09,10.7-12.22,21.39-18.13,32.19-1.54,2.81-3.24,4.17-6.59,4-6.13-.26-12.29-.07-19.52-.07,1.36-2.5,2.27-4.33,3.32-6.07,9.95-16.55,19.81-33.15,30-49.57,2.09-3.37,1.9-5.81-.06-9C930.71,38.07,921.37,22.13,912,6.23,911.16,4.86,910.45,3.44,909.27,1.25Z" style="fill:#c8785b"/><path d="M1056.28,20.47v6.58c0,28.49-.11,57,.1,85.48,0,4.87-1.44,6.6-6.23,6.1a53.19,53.19,0,0,0-10,0c-4,.34-5.14-1.18-5.11-5.12.17-22.16.08-44.32.08-66.48,0-7.33-.14-14.67.05-22,.09-3.43-1-4.73-4.55-4.62-7.33.22-14.66-.07-22,.12-3.38.09-4.67-.92-4.77-4.49-.39-14.83-.5-14.83,14.39-14.83,21.33,0,42.66.07,64-.07,3.8,0,5.24.91,5.23,5,0,14.3.12,14.3-14.36,14.3Z" style="fill:#c8785b"/></svg>