<?xml version="1.0" encoding="UTF-8" standalone="no"?>
<svg width="68px" height="26px" viewBox="0 0 68 26" version="1.1" xmlns="http://www.w3.org/2000/svg" xmlns:xlink="http://www.w3.org/1999/xlink">
    <!-- Generator: Sketch 42 (36781) - http://www.bohemiancoding.com/sketch -->
    <title>Combined Shape</title>
    <desc>Created with Sketch.</desc>
    <defs></defs>
    <g id="Page-1" stroke="none" stroke-width="1" fill="none" fill-rule="evenodd">
        <g id="1660x900,-1440x900,-1366x768,-1280x800" transform="translate(-12.000000, -12.000000)" fill="#000000">
            <g id="design-b/w">
                <g id="nav">
                    <g id="logo">
                        <g id="vh1" transform="translate(12.000000, 12.000000)">
                            <path d="M33.1469919,9.12233779 L39.5441716,9.12233779 C39.8139115,9.12233779 40.0361691,8.90440812 40.0361691,8.64091134 L40.0361691,0.482417038 C40.0361691,0.216939079 40.2574164,0 40.5281666,0 L47.4514905,0 C47.7222407,0 47.9455086,0.216939079 47.9455086,0.482417038 L47.9455086,8.64091134 C47.9455086,8.90440812 48.1657456,9.12233779 48.4354855,9.12233779 L55.6395612,9.12233779 L55.6394602,6.92223873 L55.6394602,4.17830609 C55.6394602,3.84744923 55.8213073,3.57107479 56.0425547,3.41951461 L60.3179825,0.274393264 C60.5422606,0.124814264 60.8362468,0 61.215095,0 L67.5090259,0 C67.7807863,0 68.0000131,0.216939079 68.0000131,0.482417038 L68.0000131,25.5165924 C68.0000131,25.7820703 67.7807863,26 67.5090259,26 L60.5846916,26 C60.3149517,26 60.0926941,25.7820703 60.0926941,25.5165924 L60.0926941,9.60574542 C60.0926941,9.34026746 59.8694263,9.12233779 59.6017069,9.12233779 L55.6395612,9.12233779 L55.6396623,16.393264 C55.6396623,16.658742 55.4174047,16.875681 55.1476648,16.875681 L48.4314445,16.875681 C48.159684,16.875681 47.9384367,17.0946013 47.9384367,17.3600792 L47.9384367,25.5165924 C47.9384367,25.7820703 47.7171894,26 47.4464392,26 L40.5281666,26 C40.2574164,26 40.0361691,25.7820703 40.0361691,25.5165924 L40.0361691,17.3600792 C40.0361691,17.0946013 39.8139115,16.875681 39.5441716,16.875681 L33.1469919,16.875681 L33.1469919,25.5165924 C33.1469919,25.7820703 32.9247344,26 32.6549945,26 L25.72965,26 C25.4578895,26 25.2366422,25.7820703 25.2366422,25.5165924 L25.2366422,1.35314512 C25.2366422,1.27389797 25.1426879,1.18870728 25.0608567,1.18870728 C24.9770049,1.18870728 24.9093174,1.24120852 24.8850711,1.31352155 L16.039219,25.5453195 C15.9472851,25.794948 15.6522887,26 15.379518,26 L9.84631425,26 C9.5755641,26 9.27753687,25.794948 9.18661331,25.5453195 L0.0275800122,0.455671124 C-0.0643538098,0.205052006 0.0811238866,0 0.352884305,0 L7.68334378,0 C7.95409394,0 8.23999802,0.208023774 8.32081896,0.460624071 L12.4406665,13.5532442 C12.4669333,13.6196137 12.5336106,13.6701337 12.6134213,13.6701337 C12.6922217,13.6701337 12.7578887,13.6196137 12.786176,13.5532442 L16.904003,0.460624071 C16.9858343,0.208023774 17.2727486,0 17.5434988,0 L32.6549945,0 C32.9247344,0 33.1469919,0.216939079 33.1469919,0.482417038 L33.1469919,9.12233779 Z" id="Combined-Shape"></path>
                        </g>
                    </g>
                </g>
            </g>
        </g>
    </g>
</svg>